<svg width="24" height="25" viewBox="0 0 24 25" fill="none" xmlns="http://www.w3.org/2000/svg">
<path d="M22.2283 0.143555H1.77167C1.30179 0.143555 0.851161 0.330212 0.518909 0.662464C0.186657 0.994716 0 1.44535 0 1.91522V22.3719C0 22.8418 0.186657 23.2924 0.518909 23.6246C0.851161 23.9569 1.30179 24.1436 1.77167 24.1436H22.2283C22.6982 24.1436 23.1488 23.9569 23.4811 23.6246C23.8133 23.2924 24 22.8418 24 22.3719V1.91522C24 1.44535 23.8133 0.994716 23.4811 0.662464C23.1488 0.330212 22.6982 0.143555 22.2283 0.143555ZM7.15333 20.5886H3.545V9.12689H7.15333V20.5886ZM5.34667 7.53856C4.93736 7.53625 4.53792 7.41275 4.19873 7.18364C3.85955 6.95453 3.59584 6.63009 3.44088 6.25124C3.28591 5.8724 3.24665 5.45615 3.32803 5.05501C3.40941 4.65387 3.6078 4.28583 3.89816 3.99734C4.18851 3.70884 4.55782 3.51282 4.95947 3.43402C5.36112 3.35521 5.77711 3.39715 6.15495 3.55454C6.53279 3.71193 6.85554 3.97772 7.08247 4.31837C7.30939 4.65901 7.43032 5.05925 7.43 5.46856C7.43386 5.74259 7.38251 6.01459 7.27901 6.26836C7.17551 6.52212 7.02198 6.75245 6.82757 6.94562C6.63316 7.13879 6.40185 7.29084 6.14742 7.39271C5.893 7.49457 5.62067 7.54418 5.34667 7.53856ZM20.4533 20.5986H16.8467V14.3369C16.8467 12.4902 16.0617 11.9202 15.0483 11.9202C13.9783 11.9202 12.9283 12.7269 12.9283 14.3836V20.5986H9.32V9.13522H12.79V10.7236H12.8367C13.185 10.0186 14.405 8.81356 16.2667 8.81356C18.28 8.81356 20.455 10.0086 20.455 13.5086L20.4533 20.5986Z" fill="#0A66C2"/>
</svg>
