<svg width="24" height="25" viewBox="0 0 24 25" fill="none" xmlns="http://www.w3.org/2000/svg">
<g clip-path="url(#clip0_560_6008)">
<path d="M17.1918 8.80702C18.7352 9.91419 20.6258 10.5656 22.6679 10.5656V6.62216C22.2814 6.62225 21.8959 6.5818 21.5179 6.50141V9.60548C19.476 9.60548 17.5856 8.95405 16.0418 7.84696V15.8944C16.0418 19.9202 12.7899 23.1835 8.77868 23.1835C7.28201 23.1835 5.89091 22.7294 4.73532 21.9506C6.05423 23.304 7.89356 24.1435 9.92844 24.1435C13.9399 24.1435 17.192 20.8802 17.192 16.8543V8.80702H17.1918ZM18.6105 4.82855C17.8217 3.96378 17.3039 2.84623 17.1918 1.61073V1.10352H16.102C16.3763 2.67384 17.312 4.01542 18.6105 4.82855ZM7.27241 18.8614C6.83173 18.2815 6.59359 17.5722 6.59466 16.8428C6.59466 15.0016 8.08207 13.5087 9.91712 13.5087C10.2591 13.5086 10.5991 13.5611 10.925 13.6649V9.63332C10.5441 9.58094 10.1597 9.5587 9.77545 9.56685V12.7049C9.44929 12.6011 9.10919 12.5484 8.76712 12.5487C6.93206 12.5487 5.44473 14.0414 5.44473 15.8829C5.44473 17.1849 6.18819 18.3122 7.27241 18.8614Z" fill="#FF004F"/>
<path d="M16.0417 7.84687C17.5855 8.95396 19.4759 9.6054 21.5178 9.6054V6.50133C20.378 6.25769 19.3691 5.65996 18.6104 4.82855C17.3119 4.01534 16.3763 2.67375 16.102 1.10352H13.2394V16.8542C13.2329 18.6904 11.748 20.1772 9.91691 20.1772C8.83786 20.1772 7.87923 19.661 7.27211 18.8614C6.18798 18.3122 5.44452 17.1849 5.44452 15.883C5.44452 14.0417 6.93184 12.5488 8.7669 12.5488C9.11849 12.5488 9.45736 12.6037 9.77524 12.7049V9.56694C5.8345 9.64864 2.66519 12.8801 2.66519 16.8542C2.66519 18.8381 3.45442 20.6366 4.73535 21.9507C5.89094 22.7294 7.28204 23.1835 8.77871 23.1835C12.79 23.1835 16.0418 19.9201 16.0418 15.8944V7.84687H16.0417Z" fill="black"/>
<path d="M21.5178 6.50135V5.66204C20.49 5.6636 19.4824 5.37474 18.6104 4.82849C19.3824 5.67662 20.3988 6.26142 21.5178 6.50135ZM16.102 1.10354C16.0758 0.953466 16.0557 0.802406 16.0418 0.650769V0.143555H12.0893V15.8944C12.083 17.7303 10.5982 19.2171 8.76692 19.2171C8.22929 19.2171 7.72167 19.089 7.27214 18.8615C7.87925 19.661 8.83788 20.1771 9.91693 20.1771C11.7479 20.1771 13.233 18.6905 13.2394 16.8543V1.10354H16.102ZM9.77543 9.56696V8.67344C9.44516 8.62814 9.1122 8.60541 8.77882 8.60558C4.7672 8.60549 1.51529 11.8689 1.51529 15.8944C1.51529 18.4181 2.79335 20.6422 4.73546 21.9505C3.45453 20.6365 2.6653 18.838 2.6653 16.8542C2.6653 12.8801 5.83452 9.64867 9.77543 9.56696Z" fill="#00F2EA"/>
</g>
<defs>
<clipPath id="clip0_560_6008">
<rect width="24" height="24" fill="white" transform="translate(0 0.143555)"/>
</clipPath>
</defs>
</svg>
