<svg width="24" height="20" viewBox="0 0 24 20" fill="none" xmlns="http://www.w3.org/2000/svg">
<path d="M21.057 5.32421C21.0663 5.53541 21.0663 5.73701 21.0663 5.94821C21.0756 12.3514 16.3711 19.7435 7.76784 19.7435C5.23039 19.7435 2.73924 18.9851 0.600006 17.5643C0.970437 17.6123 1.34087 17.6315 1.7113 17.6315C3.81349 17.6315 5.86012 16.9018 7.5178 15.5482C5.51747 15.5098 3.75793 14.1562 3.14672 12.1786C3.85053 12.3226 4.57287 12.2938 5.25817 12.0922C3.08189 11.6506 1.51682 9.66343 1.50756 7.34982C1.50756 7.33062 1.50756 7.31142 1.50756 7.29222C2.15581 7.66662 2.88741 7.87782 3.62828 7.89702C1.58165 6.47621 0.942654 3.64421 2.1836 1.4266C4.56361 4.46021 8.06418 6.29381 11.8241 6.49541C11.4444 4.81541 11.963 3.049 13.1761 1.8586C15.0561 0.0249938 18.0195 0.120994 19.7976 2.0698C20.844 1.8586 21.8535 1.4554 22.7703 0.888997C22.4184 2.0122 21.6868 2.9626 20.7144 3.56741C21.6405 3.4522 22.548 3.193 23.4 2.809C22.7703 3.78821 21.9738 4.63301 21.057 5.32421Z" fill="#1D9BF0"/>
</svg>
