<svg width="24" height="25" viewBox="0 0 24 25" fill="none" xmlns="http://www.w3.org/2000/svg">
<path d="M23.5057 6.37297C23.2289 5.34496 22.4184 4.53442 21.3904 4.25765C19.5123 3.74365 11.9999 3.74365 11.9999 3.74365C11.9999 3.74365 4.48762 3.74365 2.60954 4.23788C1.60131 4.51465 0.771002 5.34496 0.494232 6.37297C0 8.25105 0 12.1456 0 12.1456C0 12.1456 0 16.0599 0.494232 17.9182C0.771002 18.9462 1.58154 19.7568 2.60954 20.0335C4.50739 20.5475 11.9999 20.5475 11.9999 20.5475C11.9999 20.5475 19.5123 20.5475 21.3904 20.0533C22.4184 19.7765 23.2289 18.966 23.5057 17.938C23.9999 16.0599 23.9999 12.1654 23.9999 12.1654C23.9999 12.1654 24.0197 8.25105 23.5057 6.37297Z" fill="#FF0000"/>
<path d="M9.60788 15.7434L15.855 12.1454L9.60788 8.54736V15.7434Z" fill="white"/>
</svg>
